<svg xmlns="http://www.w3.org/2000/svg" viewBox="0 0 800 600">
  <defs>
    <linearGradient id="o" x1="0" y1="0" x2="1" y2="1"><stop offset="0" stop-color="#ff6a2b"/><stop offset="1" stop-color="#dc3d0b"/></linearGradient>
    <pattern id="g" width="40" height="40" patternUnits="userSpaceOnUse"><path d="M40 0H0v40" fill="none" stroke="#fff" stroke-opacity=".035"/></pattern>
    <radialGradient id="glow"><stop offset="0" stop-color="#ff5a1f" stop-opacity=".28"/><stop offset="1" stop-color="#ff5a1f" stop-opacity="0"/></radialGradient>
  </defs>
  <rect width="800" height="600" fill="#1c1310"/>
  <rect width="800" height="600" fill="url(#g)"/>
  <circle cx="400" cy="300" r="330" fill="url(#glow)"/>

  <!-- Poster artboard -->
  <rect x="250" y="90" width="300" height="400" rx="16" fill="#fff6f0"/>
  <circle cx="400" cy="235" r="92" fill="url(#o)"/>
  <path d="M308 327l92-160 92 160z" fill="#1c1310" fill-opacity=".9"/>
  <circle cx="455" cy="180" r="34" fill="#ffb693"/>
  <text x="278" y="420" font-family="Georgia,serif" font-weight="700" font-size="74" fill="#1c1310">Aa</text>
  <path d="M400 390h122M400 412h92M400 434h110" stroke="#d9c3b6" stroke-width="8" stroke-linecap="round"/>
  <path d="M278 452h244" stroke="#ff5a1f" stroke-width="6" stroke-linecap="round"/>

  <!-- Pen tool curve -->
  <path d="M120 420C170 250 290 520 380 330S560 150 690 210" fill="none" stroke="#ff5a1f" stroke-width="4" stroke-linecap="round"/>
  <path d="M70 470l100-100M330 420l100-180M640 160l100 100" stroke="#fff" stroke-opacity=".55" stroke-width="2"/>
  <g fill="#1c1310" stroke="#fff" stroke-width="2.500"><circle cx="70" cy="470" r="7"/><circle cx="170" cy="370" r="7"/><circle cx="330" cy="420" r="7"/><circle cx="430" cy="240" r="7"/><circle cx="640" cy="160" r="7"/><circle cx="740" cy="260" r="7"/></g>
  <g fill="#fff" stroke="#ff5a1f" stroke-width="3"><rect x="111" y="411" width="18" height="18"/><rect x="371" y="321" width="18" height="18"/><rect x="681" y="201" width="18" height="18"/></g>

  <!-- Pen nib -->
  <g transform="translate(690 210) rotate(38)">
    <path d="M0 0l-26 62 26 22 26-22z" fill="#fff6f0" stroke="#1c1310" stroke-width="3" stroke-linejoin="round"/>
    <path d="M0 0v46" stroke="#1c1310" stroke-width="3"/><circle cy="52" r="7" fill="#ff5a1f"/>
    <rect x="-26" y="84" width="52" height="20" rx="4" fill="#ff5a1f"/>
  </g>

  <!-- Swatches -->
  <rect x="78" y="110" width="132" height="176" rx="18" fill="#2a1c16" stroke="#ffffff1f" stroke-width="2"/>
  <rect x="96" y="128" width="96" height="64" rx="10" fill="url(#o)"/>
  <circle cx="110" cy="220" r="14" fill="#ff5a1f"/><circle cx="144" cy="220" r="14" fill="#ffb693"/><circle cx="178" cy="220" r="14" fill="#fff6f0"/>
  <path d="M96 256h70" stroke="#bcaaa0" stroke-width="6" stroke-linecap="round"/>

  <!-- Layers -->
  <g transform="translate(606 400)">
    <path d="M0 62l70-30 70 30-70 30z" fill="#4a362d"/>
    <path d="M0 40l70-30 70 30-70 30z" fill="#ffb693"/>
    <path d="M0 18l70-30 70 30-70 30z" fill="#ff5a1f"/>
  </g>
</svg>
